<svg width="137" height="157" viewBox="0 0 137 157" fill="none" xmlns="http://www.w3.org/2000/svg">
<path d="M0.250007 156.32C0.1854 156.32 0.123281 156.295 0.0766739 156.25C0.0300669 156.205 0.0025912 156.144 6.92323e-06 156.08V154.63C-0.000344412 154.584 0.0126831 154.538 0.0375212 154.499C0.0623594 154.46 0.0979494 154.429 0.140007 154.41L3.85001 152.55V151.26C3.85001 151.069 3.77415 150.886 3.63912 150.751C3.5041 150.616 3.32096 150.54 3.13001 150.54H1.21001C1.01905 150.54 0.835916 150.616 0.70089 150.751C0.565864 150.886 0.490007 151.069 0.490007 151.26V151.51H6.92323e-06V151.26C6.92323e-06 151.101 0.0313045 150.944 0.0921127 150.797C0.152921 150.65 0.242049 150.517 0.354408 150.404C0.466767 150.292 0.600156 150.203 0.74696 150.142C0.893764 150.081 1.05111 150.05 1.21001 150.05H3.13001C3.28891 150.05 3.44625 150.081 3.59305 150.142C3.73986 150.203 3.87325 150.292 3.98561 150.404C4.09797 150.517 4.18709 150.65 4.2479 150.797C4.30871 150.944 4.34001 151.101 4.34001 151.26V152.71C4.33911 152.755 4.32667 152.798 4.3039 152.837C4.28112 152.875 4.24878 152.907 4.21001 152.93L0.490007 154.78V155.83H4.34001V156.32H0.250007Z" fill="#C21919"/>
<path d="M12 156.32C11.8411 156.32 11.6837 156.288 11.5369 156.228C11.3901 156.167 11.2567 156.078 11.1444 155.965C11.032 155.853 10.9429 155.72 10.8821 155.573C10.8213 155.426 10.79 155.269 10.79 155.11V155H11.29V155.12C11.2887 155.214 11.306 155.307 11.3411 155.395C11.3762 155.482 11.4283 155.561 11.4944 155.628C11.5604 155.695 11.6391 155.749 11.7259 155.785C11.8127 155.821 11.9059 155.84 12 155.84H13.93C14.1209 155.84 14.3041 155.764 14.4391 155.629C14.5741 155.494 14.65 155.311 14.65 155.12V154.64C14.6343 154.526 14.5916 154.418 14.5255 154.324C14.4594 154.23 14.3718 154.153 14.27 154.1L11.44 152.73C11.2544 152.635 11.0975 152.492 10.985 152.316C10.8726 152.141 10.8088 151.938 10.8 151.73V151.25C10.8026 150.932 10.9299 150.629 11.1543 150.404C11.3788 150.18 11.6825 150.052 12 150.05H13.93C14.2509 150.05 14.5587 150.177 14.7856 150.404C15.0125 150.631 15.14 150.939 15.14 151.26V151.38H14.65V151.26C14.6474 151.07 14.5707 150.888 14.4362 150.754C14.3018 150.619 14.1201 150.542 13.93 150.54H12C11.8108 150.542 11.6302 150.619 11.4973 150.754C11.3644 150.889 11.29 151.071 11.29 151.26V151.74C11.3014 151.855 11.3412 151.965 11.4057 152.061C11.4703 152.157 11.5577 152.236 11.66 152.29L14.5 153.65C14.6855 153.745 14.8425 153.888 14.9549 154.063C15.0673 154.239 15.1312 154.441 15.14 154.65V155.13C15.14 155.451 15.0125 155.758 14.7856 155.985C14.5587 156.212 14.2509 156.34 13.93 156.34L12 156.32Z" fill="#C21919"/>
<path d="M17.34 156.32C17.0191 156.32 16.7113 156.192 16.4844 155.965C16.2575 155.738 16.13 155.431 16.13 155.11V151.26C16.13 151.101 16.1613 150.944 16.2221 150.797C16.2829 150.65 16.372 150.517 16.4844 150.404C16.5968 150.292 16.7302 150.203 16.877 150.142C17.0238 150.081 17.1811 150.05 17.34 150.05H19.27C19.5892 150.052 19.8944 150.181 20.1191 150.408C20.3439 150.634 20.47 150.941 20.47 151.26V151.51H20V151.26C20 151.071 19.9255 150.889 19.7927 150.754C19.6598 150.619 19.4792 150.542 19.29 150.54H17.34C17.149 150.54 16.9659 150.616 16.8309 150.751C16.6959 150.886 16.62 151.069 16.62 151.26V155.11C16.62 155.301 16.6959 155.484 16.8309 155.619C16.9659 155.754 17.149 155.83 17.34 155.83H19.27C19.3641 155.83 19.4572 155.811 19.544 155.775C19.6308 155.739 19.7096 155.685 19.7756 155.618C19.8417 155.551 19.8938 155.472 19.9289 155.385C19.9639 155.297 19.9813 155.204 19.98 155.11V154L18.57 153.67L18.68 153.19L20.29 153.57C20.3438 153.582 20.3915 153.612 20.4245 153.656C20.4575 153.7 20.4737 153.755 20.47 153.81V155.09C20.47 155.409 20.3439 155.715 20.1191 155.942C19.8944 156.169 19.5892 156.297 19.27 156.3L17.34 156.32Z" fill="#C21919"/>
<path d="M25.36 150.05H25.85V156.32H25.36V151L23.93 153.33V153.75H23.43V153.33L22 151V156.33H21.51V150.06H22L23.68 152.79L25.36 150.05Z" fill="#C21919"/>
<path d="M27.38 150.94V156.32H26.88V150.05H27.38L30.74 155.43V150.05H31.23V156.32H30.74L27.38 150.94Z" fill="#C21919"/>
<path d="M33.47 156.32C33.1491 156.32 32.8413 156.192 32.6144 155.965C32.3875 155.738 32.26 155.431 32.26 155.11V151.26C32.26 151.101 32.2913 150.944 32.3521 150.797C32.4129 150.65 32.5021 150.517 32.6144 150.404C32.7268 150.292 32.8602 150.203 33.007 150.142C33.1538 150.081 33.3111 150.05 33.47 150.05H35.4C35.5589 150.05 35.7163 150.081 35.8631 150.142C36.0099 150.203 36.1433 150.292 36.2556 150.404C36.368 150.517 36.4571 150.65 36.5179 150.797C36.5787 150.944 36.61 151.101 36.61 151.26V151.51H36.11V151.26C36.11 151.071 36.0355 150.889 35.9027 150.754C35.7698 150.619 35.5892 150.542 35.4 150.54H33.47C33.2799 150.542 33.0982 150.619 32.9638 150.754C32.8293 150.888 32.7526 151.07 32.75 151.26V155.11C32.75 155.301 32.8259 155.484 32.9609 155.619C33.0959 155.754 33.2791 155.83 33.47 155.83H35.4C35.4941 155.83 35.5872 155.811 35.674 155.775C35.7608 155.739 35.8396 155.685 35.9056 155.618C35.9717 155.551 36.0238 155.472 36.0589 155.385C36.094 155.297 36.1113 155.204 36.11 155.11V154.87H36.61V155.11C36.61 155.431 36.4825 155.738 36.2556 155.965C36.0287 156.192 35.7209 156.32 35.4 156.32H33.47Z" fill="#C21919"/>
<path d="M37.88 156.32C37.8164 156.32 37.7553 156.295 37.7103 156.25C37.6653 156.205 37.64 156.144 37.64 156.08V154.63C37.6399 154.585 37.6519 154.541 37.6748 154.502C37.6977 154.463 37.7306 154.432 37.77 154.41L41.49 152.55V151.26C41.49 151.069 41.4142 150.886 41.2791 150.751C41.1441 150.616 40.961 150.54 40.77 150.54H38.85C38.6591 150.54 38.4759 150.616 38.3409 150.751C38.2059 150.886 38.13 151.069 38.13 151.26V151.51H37.64V151.26C37.64 151.101 37.6713 150.944 37.7321 150.797C37.7929 150.65 37.8821 150.517 37.9944 150.404C38.1068 150.292 38.2402 150.203 38.387 150.142C38.5338 150.081 38.6911 150.05 38.85 150.05H40.77C40.9306 150.047 41.0901 150.077 41.2392 150.136C41.3883 150.196 41.5241 150.285 41.6386 150.397C41.7531 150.51 41.844 150.644 41.906 150.792C41.9681 150.94 42 151.099 42 151.26V152.71C41.9991 152.755 41.9867 152.798 41.9639 152.837C41.9411 152.876 41.9088 152.908 41.87 152.93L38.15 154.78V155.83H42V156.32H37.88Z" fill="#C21919"/>
<path d="M46.88 153.19C47.034 153.307 47.1579 153.458 47.2414 153.632C47.3249 153.806 47.3655 153.998 47.36 154.19V155.19C47.36 155.511 47.2325 155.819 47.0056 156.046C46.7787 156.273 46.4709 156.4 46.15 156.4H44.22C43.9008 156.398 43.5956 156.269 43.3709 156.043C43.1461 155.816 43.02 155.51 43.02 155.19V154.19C43.0125 153.998 43.0513 153.807 43.1331 153.633C43.2149 153.459 43.3373 153.307 43.49 153.19C43.3373 153.074 43.2149 152.922 43.1331 152.748C43.0513 152.574 43.0125 152.383 43.02 152.19V151.19C43.02 150.871 43.1461 150.565 43.3709 150.338C43.5956 150.112 43.9008 149.983 44.22 149.98H46.15C46.3089 149.98 46.4663 150.012 46.6131 150.073C46.7599 150.133 46.8933 150.223 47.0056 150.335C47.118 150.447 47.2071 150.581 47.2679 150.727C47.3287 150.874 47.36 151.032 47.36 151.19V152.19C47.3655 152.383 47.3249 152.575 47.2414 152.749C47.1579 152.923 47.034 153.074 46.88 153.19ZM46.15 152.94C46.341 152.94 46.5241 152.865 46.6591 152.73C46.7942 152.595 46.87 152.411 46.87 152.22V151.22C46.87 151.03 46.7942 150.846 46.6591 150.711C46.5241 150.576 46.341 150.5 46.15 150.5H44.22C44.0308 150.503 43.8502 150.58 43.7174 150.715C43.5845 150.85 43.51 151.031 43.51 151.22V152.22C43.5087 152.315 43.5261 152.408 43.5612 152.495C43.5963 152.583 43.6483 152.662 43.7144 152.729C43.7805 152.796 43.8592 152.849 43.946 152.885C44.0328 152.922 44.1259 152.94 44.22 152.94H46.15ZM46.15 153.43H44.22C44.1259 153.43 44.0328 153.449 43.946 153.485C43.8592 153.522 43.7805 153.575 43.7144 153.642C43.6483 153.709 43.5963 153.788 43.5612 153.876C43.5261 153.963 43.5087 154.056 43.51 154.15V155.15C43.5087 155.245 43.5261 155.338 43.5612 155.425C43.5963 155.513 43.6483 155.592 43.7144 155.659C43.7805 155.726 43.8592 155.779 43.946 155.815C44.0328 155.852 44.1259 155.87 44.22 155.87H46.15C46.341 155.87 46.5241 155.795 46.6591 155.66C46.7942 155.525 46.87 155.341 46.87 155.15V154.15C46.87 153.96 46.7942 153.776 46.6591 153.641C46.5241 153.506 46.341 153.43 46.15 153.43Z" fill="#C21919"/>
<path d="M54.26 150.54V152.94H57.15V153.43H54.26V156.32H53.77V150.05H58.11V150.54H54.26Z" fill="#C21919"/>
<path d="M63 153.19C63.154 153.306 63.2779 153.458 63.3614 153.632C63.4449 153.806 63.4855 153.997 63.48 154.19V155.19C63.48 155.511 63.3525 155.819 63.1256 156.045C62.8987 156.272 62.5909 156.4 62.27 156.4H59.15V150.13H62.28C62.6009 150.13 62.9087 150.257 63.1356 150.484C63.3625 150.711 63.49 151.019 63.49 151.34V152.34C63.4722 152.508 63.4194 152.67 63.335 152.817C63.2506 152.963 63.1365 153.09 63 153.19ZM62.27 152.94C62.461 152.94 62.6441 152.864 62.7791 152.729C62.9142 152.594 62.99 152.411 62.99 152.22V151.22C62.99 151.029 62.9142 150.846 62.7791 150.711C62.6441 150.576 62.461 150.5 62.27 150.5H59.64V152.9L62.27 152.94ZM62.99 154.15C62.99 153.959 62.9142 153.776 62.7791 153.641C62.6441 153.506 62.461 153.43 62.27 153.43H59.64V155.83H62.28C62.471 155.83 62.6541 155.754 62.7891 155.619C62.9242 155.484 63 155.301 63 155.11L62.99 154.15Z" fill="#C21919"/>
<path d="M69 150.05V151.26C69.002 151.292 68.9967 151.323 68.9846 151.353C68.9725 151.382 68.9538 151.409 68.93 151.43L65.15 155.21V155.83H69V156.32H64.65V155.11C64.6487 155.078 64.6543 155.046 64.6664 155.017C64.6785 154.988 64.6968 154.961 64.72 154.94L68.5 151.16V150.54H64.41V150.05H69Z" fill="#C21919"/>
<path d="M71.11 156.32C70.7891 156.32 70.4813 156.192 70.2544 155.965C70.0275 155.738 69.9 155.431 69.9 155.11V151.26C69.9 151.101 69.9313 150.944 69.9921 150.797C70.0529 150.65 70.1421 150.517 70.2544 150.404C70.3668 150.292 70.5002 150.203 70.647 150.142C70.7938 150.081 70.9511 150.05 71.11 150.05H73C73.3192 150.052 73.6244 150.181 73.8492 150.408C74.0739 150.634 74.2 150.941 74.2 151.26V151.51H73.71V151.26C73.71 151.071 73.6356 150.889 73.5027 150.754C73.3698 150.619 73.1892 150.542 73 150.54H71.11C70.9191 150.54 70.7359 150.616 70.6009 150.751C70.4659 150.886 70.39 151.069 70.39 151.26V155.11C70.39 155.301 70.4659 155.484 70.6009 155.619C70.7359 155.754 70.9191 155.83 71.11 155.83H73C73.0941 155.83 73.1873 155.811 73.2741 155.775C73.3609 155.739 73.4396 155.685 73.5056 155.618C73.5717 155.551 73.6238 155.472 73.6589 155.385C73.694 155.297 73.7113 155.204 73.71 155.11V154L72.3 153.67L72.41 153.19L74.01 153.57C74.0656 153.58 74.1157 153.609 74.1507 153.654C74.1858 153.698 74.2033 153.753 74.2 153.81V155.09C74.2 155.409 74.0739 155.715 73.8492 155.942C73.6244 156.169 73.3192 156.297 73 156.3L71.11 156.32Z" fill="#C21919"/>
<path d="M75.28 156.32V150.05H78.41C78.7309 150.05 79.0387 150.177 79.2656 150.404C79.4926 150.631 79.62 150.939 79.62 151.26V152.26C79.62 152.581 79.4926 152.888 79.2656 153.115C79.0387 153.342 78.7309 153.47 78.41 153.47H75.77V156.36L75.28 156.32ZM78.41 152.94C78.601 152.94 78.7841 152.864 78.9191 152.729C79.0542 152.594 79.13 152.411 79.13 152.22V151.22C79.13 151.029 79.0542 150.846 78.9191 150.711C78.7841 150.576 78.601 150.5 78.41 150.5H75.77V152.9L78.41 152.94Z" fill="#C21919"/>
<path d="M80.9 156.32C80.8354 156.32 80.7733 156.295 80.7267 156.25C80.6801 156.205 80.6526 156.144 80.65 156.08V154.63C80.6519 154.584 80.6659 154.54 80.6904 154.501C80.715 154.462 80.7494 154.431 80.79 154.41L84.51 152.55V151.26C84.5074 151.07 84.4307 150.888 84.2963 150.754C84.1618 150.619 83.9802 150.542 83.79 150.54H81.86C81.6708 150.542 81.4902 150.619 81.3574 150.754C81.2245 150.889 81.15 151.071 81.15 151.26V151.51H80.65V151.26C80.65 151.101 80.6813 150.944 80.7421 150.797C80.8029 150.65 80.8921 150.517 81.0044 150.404C81.1168 150.292 81.2502 150.203 81.397 150.142C81.5438 150.081 81.7011 150.05 81.86 150.05H83.79C83.9489 150.05 84.1063 150.081 84.2531 150.142C84.3999 150.203 84.5333 150.292 84.6456 150.404C84.758 150.517 84.8471 150.65 84.9079 150.797C84.9687 150.944 85 151.101 85 151.26V152.71C84.9992 152.756 84.9857 152.801 84.961 152.84C84.9363 152.878 84.9013 152.91 84.86 152.93L81.15 154.78V155.83H85V156.32H80.9Z" fill="#C21919"/>
<path d="M89.9 153.19C90.0539 153.307 90.1778 153.458 90.2613 153.632C90.3448 153.806 90.3855 153.998 90.38 154.19V155.19C90.38 155.511 90.2525 155.819 90.0256 156.046C89.7987 156.273 89.4909 156.4 89.17 156.4H87.24C87.0716 156.405 86.9042 156.374 86.7483 156.31C86.5925 156.247 86.4517 156.151 86.335 156.029C86.2183 155.908 86.1282 155.763 86.0705 155.605C86.0128 155.447 85.9888 155.278 86 155.11V154.11C85.9945 153.918 86.0352 153.726 86.1187 153.552C86.2022 153.378 86.326 153.227 86.48 153.11C86.326 152.994 86.2022 152.843 86.1187 152.669C86.0352 152.495 85.9945 152.303 86 152.11V151.11C86 150.951 86.0313 150.794 86.0921 150.647C86.1529 150.501 86.242 150.367 86.3544 150.255C86.4668 150.142 86.6001 150.053 86.7469 149.993C86.8938 149.932 87.0511 149.9 87.21 149.9H89.14C89.2989 149.9 89.4562 149.932 89.603 149.993C89.7498 150.053 89.8832 150.142 89.9956 150.255C90.1079 150.367 90.1971 150.501 90.2579 150.647C90.3187 150.794 90.35 150.951 90.35 151.11V152.11C90.3724 152.314 90.3429 152.52 90.2642 152.708C90.1855 152.897 90.0602 153.063 89.9 153.19ZM89.17 152.94C89.2641 152.94 89.3572 152.922 89.444 152.885C89.5308 152.849 89.6095 152.796 89.6756 152.729C89.7417 152.662 89.7938 152.582 89.8288 152.495C89.8639 152.408 89.8813 152.314 89.88 152.22V151.22C89.88 151.031 89.8055 150.85 89.6727 150.715C89.5398 150.58 89.3592 150.503 89.17 150.5H87.24C87.049 150.5 86.8659 150.576 86.7309 150.711C86.5958 150.846 86.52 151.029 86.52 151.22V152.22C86.52 152.411 86.5958 152.594 86.7309 152.73C86.8659 152.865 87.049 152.94 87.24 152.94H89.17ZM89.17 153.43H87.24C87.049 153.43 86.8659 153.506 86.7309 153.641C86.5958 153.776 86.52 153.959 86.52 154.15V155.15C86.52 155.341 86.5958 155.524 86.7309 155.66C86.8659 155.795 87.049 155.87 87.24 155.87H89.17C89.2641 155.87 89.3572 155.852 89.444 155.815C89.5308 155.779 89.6095 155.726 89.6756 155.659C89.7417 155.592 89.7938 155.512 89.8288 155.425C89.8639 155.338 89.8813 155.244 89.88 155.15V154.15C89.8813 154.056 89.8639 153.963 89.8288 153.876C89.7938 153.788 89.7417 153.709 89.6756 153.642C89.6095 153.575 89.5308 153.522 89.444 153.485C89.3572 153.449 89.2641 153.43 89.17 153.43Z" fill="#C21919"/>
<path d="M12.72 0V3.08H3.07V12.73H0V0H12.72Z" fill="#C21919"/>
<path d="M136.22 12.7198H133.13V3.07977H123.48V0.00976562H136.22V12.7198Z" fill="#C21919"/>
<path d="M12.72 144.59V141.51H3.07V131.86H0V144.59H12.72Z" fill="#C21919"/>
<path d="M136.22 131.86H133.13V141.51H123.48V144.58H136.22V131.86Z" fill="#C21919"/>
<path d="M121.44 102.39V42.6205L68.11 12.7305L14.77 42.6205V102.39L68.11 132.28L121.44 102.39Z" stroke="#C21919" stroke-width="3" stroke-miterlimit="10"/>
<path d="M56.27 57.6904L79.94 81.3604Z" fill="#C21919"/>
<path d="M56.27 57.6904L79.94 81.3604" stroke="#C21919" stroke-width="3" stroke-miterlimit="10"/>
<path d="M79.94 57.6904L56.27 81.3604Z" fill="#C21919"/>
<path d="M79.94 57.6904L56.27 81.3604" stroke="#C21919" stroke-width="3" stroke-miterlimit="10"/>
<path d="M38.272 97.9599H37.568C37.4187 97.9599 37.344 97.8852 37.344 97.7359V87.8959C37.344 87.7465 37.4187 87.6719 37.568 87.6719H38.224C38.352 87.6719 38.4374 87.7145 38.48 87.7999L42.896 95.5599H42.96V87.8959C42.96 87.7465 43.0347 87.6719 43.184 87.6719H43.888C44.0374 87.6719 44.112 87.7465 44.112 87.8959V97.7359C44.112 97.8852 44.0374 97.9599 43.888 97.9599H43.296C43.1787 97.9599 43.0667 97.8905 42.96 97.7519L38.56 90.0719H38.496V97.7359C38.496 97.8852 38.4214 97.9599 38.272 97.9599ZM48.9769 96.9359H50.6089C51.5049 96.9359 51.9529 96.4719 51.9529 95.5439V90.0879C51.9529 89.1599 51.5049 88.6959 50.6089 88.6959H48.9769C48.0916 88.6959 47.6489 89.1599 47.6489 90.0879V95.5439C47.6489 96.4719 48.0916 96.9359 48.9769 96.9359ZM50.7529 97.9599H48.8489C48.1129 97.9599 47.5316 97.7519 47.1049 97.3359C46.6889 96.9199 46.4809 96.3385 46.4809 95.5919V90.0399C46.4809 89.2932 46.6889 88.7119 47.1049 88.2959C47.5316 87.8799 48.1129 87.6719 48.8489 87.6719H50.7529C51.4889 87.6719 52.0649 87.8852 52.4809 88.3119C52.9076 88.7279 53.1209 89.3039 53.1209 90.0399V95.5919C53.1209 96.3279 52.9076 96.9092 52.4809 97.3359C52.0649 97.7519 51.4889 97.9599 50.7529 97.9599ZM62.0591 97.9599H61.3391C61.1898 97.9599 61.1151 97.8852 61.1151 97.7359V88.8399C61.1151 88.7439 61.0618 88.6959 60.9551 88.6959H58.7791C58.6191 88.6959 58.5391 88.6212 58.5391 88.4719V87.8959C58.5391 87.7465 58.6191 87.6719 58.7791 87.6719H64.6191C64.7791 87.6719 64.8591 87.7465 64.8591 87.8959V88.4719C64.8591 88.6212 64.7791 88.6959 64.6191 88.6959H62.4431C62.3365 88.6959 62.2831 88.7439 62.2831 88.8399V97.7359C62.2831 97.8852 62.2085 97.9599 62.0591 97.9599ZM66.5033 97.9599H65.7033C65.5646 97.9599 65.5166 97.8852 65.5593 97.7359L68.5513 87.8959C68.5939 87.7465 68.6953 87.6719 68.8553 87.6719H70.0073C70.1673 87.6719 70.2686 87.7465 70.3113 87.8959L73.3033 97.7359C73.3459 97.8852 73.2979 97.9599 73.1593 97.9599H72.3433C72.2259 97.9599 72.1513 97.8852 72.1193 97.7359L71.3673 95.3999H67.4953L66.7433 97.7359C66.7006 97.8852 66.6206 97.9599 66.5033 97.9599ZM69.3993 88.8719L67.7513 94.4079H71.1113L69.4633 88.8719H69.3993ZM74.9039 95.5919V95.0799C74.9039 94.9305 74.9786 94.8559 75.1279 94.8559H75.8479C75.9972 94.8559 76.0719 94.9305 76.0719 95.0799V95.4959C76.0719 96.4559 76.5466 96.9359 77.4959 96.9359H78.9039C79.8532 96.9359 80.3279 96.4452 80.3279 95.4639V94.9199C80.3279 94.1519 79.6932 93.6505 78.4239 93.4159C77.8906 93.3199 77.3572 93.2079 76.8239 93.0799C76.2906 92.9519 75.8372 92.7065 75.4639 92.3439C75.0906 91.9705 74.9039 91.4639 74.9039 90.8239V90.0399C74.9039 89.3039 75.1119 88.7279 75.5279 88.3119C75.9546 87.8852 76.5359 87.6719 77.2719 87.6719H79.0479C79.7732 87.6719 80.3492 87.8852 80.7759 88.3119C81.2026 88.7279 81.4159 89.3039 81.4159 90.0399V90.4399C81.4159 90.5999 81.3466 90.6799 81.2079 90.6799H80.4719C80.3332 90.6799 80.2639 90.5999 80.2639 90.4399V90.1519C80.2639 89.1812 79.7892 88.6959 78.8399 88.6959H77.4799C76.5306 88.6959 76.0559 89.2025 76.0559 90.2159V90.8559C76.0559 91.3999 76.4132 91.7732 77.1279 91.9759C77.4479 92.0612 77.7999 92.1412 78.1839 92.2159C78.5679 92.2799 78.9519 92.3705 79.3359 92.4879C79.7306 92.5945 80.0879 92.7332 80.4079 92.9039C80.7279 93.0639 80.9839 93.3145 81.1759 93.6559C81.3786 93.9865 81.4799 94.3919 81.4799 94.8719V95.5919C81.4799 96.3279 81.2666 96.9092 80.8399 97.3359C80.4132 97.7519 79.8372 97.9599 79.1119 97.9599H77.2719C76.5466 97.9599 75.9706 97.7519 75.5439 97.3359C75.1172 96.9092 74.9039 96.3279 74.9039 95.5919ZM84.8349 97.9599H84.1149C83.9656 97.9599 83.8909 97.8852 83.8909 97.7359V87.8959C83.8909 87.7465 83.9656 87.6719 84.1149 87.6719H84.8349C84.9842 87.6719 85.0589 87.7465 85.0589 87.8959V93.4159H85.1069C85.1816 93.1919 85.2989 92.9732 85.4589 92.7599L89.0429 87.8959C89.1389 87.7465 89.2776 87.6719 89.4589 87.6719H90.3229C90.5042 87.6719 90.5309 87.7519 90.4029 87.9119L87.2349 92.1999L90.8509 97.7039C90.9682 97.8745 90.9202 97.9599 90.7069 97.9599H90.0509C89.8269 97.9599 89.6722 97.8852 89.5869 97.7359L86.5149 93.0479L85.0589 94.7919V97.7359C85.0589 97.8852 84.9842 97.9599 84.8349 97.9599ZM92.3883 95.5919V95.0799C92.3883 94.9305 92.4629 94.8559 92.6123 94.8559H93.3323C93.4816 94.8559 93.5563 94.9305 93.5563 95.0799V95.4959C93.5563 96.4559 94.0309 96.9359 94.9803 96.9359H96.3883C97.3376 96.9359 97.8123 96.4452 97.8123 95.4639V94.9199C97.8123 94.1519 97.1776 93.6505 95.9083 93.4159C95.3749 93.3199 94.8416 93.2079 94.3083 93.0799C93.7749 92.9519 93.3216 92.7065 92.9483 92.3439C92.5749 91.9705 92.3883 91.4639 92.3883 90.8239V90.0399C92.3883 89.3039 92.5963 88.7279 93.0123 88.3119C93.4389 87.8852 94.0203 87.6719 94.7563 87.6719H96.5323C97.2576 87.6719 97.8336 87.8852 98.2603 88.3119C98.6869 88.7279 98.9003 89.3039 98.9003 90.0399V90.4399C98.9003 90.5999 98.8309 90.6799 98.6923 90.6799H97.9563C97.8176 90.6799 97.7483 90.5999 97.7483 90.4399V90.1519C97.7483 89.1812 97.2736 88.6959 96.3243 88.6959H94.9643C94.0149 88.6959 93.5403 89.2025 93.5403 90.2159V90.8559C93.5403 91.3999 93.8976 91.7732 94.6123 91.9759C94.9323 92.0612 95.2843 92.1412 95.6683 92.2159C96.0523 92.2799 96.4363 92.3705 96.8203 92.4879C97.2149 92.5945 97.5723 92.7332 97.8923 92.9039C98.2123 93.0639 98.4683 93.3145 98.6603 93.6559C98.8629 93.9865 98.9643 94.3919 98.9643 94.8719V95.5919C98.9643 96.3279 98.7509 96.9092 98.3243 97.3359C97.8976 97.7519 97.3216 97.9599 96.5963 97.9599H94.7563C94.0309 97.9599 93.4549 97.7519 93.0283 97.3359C92.6016 96.9092 92.3883 96.3279 92.3883 95.5919Z" fill="#C21919"/>
</svg>
