<svg xmlns="http://www.w3.org/2000/svg" version="1.1" viewBox="-5.0 -10.0 110.0 135.0">
 <path fill="rgb(120, 214, 204)" d="m47.75 60c8.8906 0 16.109-7.2344 16.109-16.125-0.875-21.375-31.359-21.359-32.234 0 0 8.8906 7.2344 16.125 16.125 16.125zm9.1875-22.75c2.2969 3.125 2.7656 7.3906 1.2812 10.969l-1.4531-0.60938c1.3125-3.0625 0.875-6.75-1.0938-9.4375zm-2.1406-2.25-0.98438 1.2344c-2.0938-1.6719-4.7969-2.3906-7.375-2.0469l-0.20312-1.5469c2.9531-0.39062 6.1562 0.45312 8.5625 2.3594zm7.7812-11.922h3.9062c1.4688 0 2.6562 1.2031 2.6562 2.6719v4.1562c-1.75-2.6562-3.9688-4.9844-6.5625-6.8281zm24.703 62.094-2.4062 2.25c-1.4531 1.3438-3.7344 1.2812-5.0938-0.17188l-14.672-15.688 7.6719-7.1719 14.672 15.688c1.3594 1.3906 1.2656 3.7969-0.17188 5.0938zm-18.141-19.516v-7.8125c-8.5625 13.609-28.812 15.594-39.812 3.7188h-6.6719v-1.5625h5.2812c-9.3594-11.031-6.8438-28.844 4.9844-36.922h-0.84375v-5.625c-0.5 0.125-1.0625 0.125-1.5625 0v5.625h-16.297c-1.4688 0-2.6562 1.2031-2.6562 2.6719v45.625c0 1.4688 1.1875 2.6719 2.6562 2.6719h51.078l-2.3906-2.5625zm-54.719-39.453h7.5938v7.5938h-3.0156v6.0938h-1.5625v-6.0938h-3.0156zm3.0156 23.094v-5.4219h1.5625v5.4219zm1.5625 3.7812v9.125h-1.5625v-9.125zm11.844 14.578h-14.109v-1.5625h14.109zm-10.391-35.422h-4.4688v-4.4688h4.4688zm10.844-20.609c2.8438 0.046875 2.8594 4.3125 0 4.3594-2.875-0.046875-2.875-4.2969 0-4.3594zm10.516 5.8281c-0.5 0.125-1.0625 0.125-1.5625 0v3.6406c-9.5781 3.1562-16.5 12.172-16.5 22.781 0.26562 24.562 32.312 32.938 44.703 12.125h8.3125c-0.125-0.5-0.125-1.0625 0-1.5625h-7.4844c1.125-2.2656 1.8906-4.7344 2.2344-7.3281h5.25c-0.125-0.5-0.125-1.0625 0-1.5625h-5.0938c0.1875-2.4531-0.046875-5.0156-0.60938-7.3281h5.7031c-0.125-0.5-0.125-1.0625 0-1.5625h-6.1406c-1.6406-5.1719-4.9688-9.5781-9.3438-12.578v-6.625c-0.5 0.125-1.0625 0.125-1.5625 0v5.6406c-2.4688-1.4219-5.2344-2.4375-8.1719-2.8906v-2.75c-0.5 0.125-1.0625 0.125-1.5625 0v2.5469c-2.7188-0.28125-5.5781-0.015625-8.1719 0.625zm5.9375 8.75c9.75 0 17.672 7.9219 17.672 17.672-0.96875 23.469-34.391 23.453-35.359 0 0-9.75 7.9375-17.672 17.688-17.672zm-6.7188-14.578c2.8594 0.0625 2.875 4.3125 0 4.3594-2.875-0.046875-2.875-4.2969 0-4.3594zm9.7344 0c2.875 0.0625 2.875 4.3125 0 4.3594-2.875-0.046875-2.875-4.2969 0-4.3594zm29.656 23.625c2.875 0.0625 2.875 4.3125 0 4.375-2.875-0.0625-2.875-4.3125 0-4.375zm0 8.8906c2.875 0.0625 2.875 4.3125 0 4.375-2.875-0.0625-2.875-4.3125 0-4.375zm0 8.8906c2.875 0.0625 2.875 4.3125 0 4.375-2.875-0.0625-2.875-4.3125 0-4.375zm-19.922-41.406c2.875 0.0625 2.875 4.3125 0 4.3594-2.8594-0.046875-2.8438-4.3125 0-4.3594z"/>
</svg>