<svg xmlns="http://www.w3.org/2000/svg" version="1.1" xmlns:xlink="http://www.w3.org/1999/xlink" xmlns:svgjs="http://svgjs.dev/svgjs" viewBox="0 0 800 800"><defs><linearGradient x1="50%" y1="0%" x2="50%" y2="100%" id="ffflurry-grad" gradientTransform="rotate(270)"><stop stop-color="hsl(353, 71%, 9%)" stop-opacity="1" offset="0%"></stop><stop stop-color="#e41b33" stop-opacity="1" offset="45%"></stop><stop stop-color="rgb(15, 15, 15)" stop-opacity="1" offset="100%"></stop></linearGradient></defs><rect width="100%" height="100%" fill="hsl(353, 71%, 9%)"></rect><g fill="url(#ffflurry-grad)"><rect width="278" height="1" x="598" y="347.5" rx="0.5" transform="rotate(0, 737, 348)"></rect><rect width="352" height="1" x="39" y="127.5" rx="0.5" transform="rotate(0, 215, 128)"></rect><rect width="356" height="1" x="433" y="572.5" rx="0.5" transform="rotate(0, 611, 573)"></rect><rect width="491" height="1" x="410.5" y="537.5" rx="0.5" transform="rotate(0, 656, 538)"></rect><rect width="54" height="1" x="323" y="169.5" rx="0.5" transform="rotate(0, 350, 170)"></rect><rect width="332" height="1" x="120" y="161.5" rx="0.5" transform="rotate(0, 286, 162)"></rect><rect width="346" height="1" x="250" y="733.5" rx="0.5" transform="rotate(0, 423, 734)"></rect><rect width="202" height="1" x="121" y="27.5" rx="0.5" transform="rotate(0, 222, 28)"></rect><rect width="305" height="1" x="-31.5" y="655.5" rx="0.5" transform="rotate(0, 121, 656)"></rect><rect width="514" height="1" x="244" y="193.5" rx="0.5" transform="rotate(0, 501, 194)"></rect><rect width="304" height="1" x="282" y="214.5" rx="0.5" transform="rotate(0, 434, 215)"></rect><rect width="297" height="1" x="321.5" y="671.5" rx="0.5" transform="rotate(0, 470, 672)"></rect><rect width="169" height="1" x="523.5" y="99.5" rx="0.5" transform="rotate(0, 608, 100)"></rect><rect width="570" height="1" x="-258" y="710.5" rx="0.5" transform="rotate(0, 27, 711)"></rect><rect width="137" height="1" x="-22.5" y="137.5" rx="0.5" transform="rotate(0, 46, 138)"></rect><rect width="360" height="1" x="165" y="718.5" rx="0.5" transform="rotate(0, 345, 719)"></rect><rect width="391" height="1" x="357.5" y="182.5" rx="0.5" transform="rotate(0, 553, 183)"></rect><rect width="25" height="1" x="6.5" y="206.5" rx="0.5" transform="rotate(0, 19, 207)"></rect><rect width="300" height="1" x="513" y="118.5" rx="0.5" transform="rotate(0, 663, 119)"></rect><rect width="238" height="1" x="365" y="741.5" rx="0.5" transform="rotate(0, 484, 742)"></rect><rect width="185" height="1" x="603.5" y="250.5" rx="0.5" transform="rotate(0, 696, 251)"></rect><rect width="184" height="1" x="425" y="599.5" rx="0.5" transform="rotate(0, 517, 600)"></rect><rect width="29" height="1" x="76.5" y="734.5" rx="0.5" transform="rotate(0, 91, 735)"></rect><rect width="217" height="1" x="-86.5" y="104.5" rx="0.5" transform="rotate(0, 22, 105)"></rect><rect width="146" height="1" x="85" y="723.5" rx="0.5" transform="rotate(0, 158, 724)"></rect><rect width="96" height="1" x="541" y="250.5" rx="0.5" transform="rotate(0, 589, 251)"></rect><rect width="429" height="1" x="-178.5" y="332.5" rx="0.5" transform="rotate(0, 36, 333)"></rect><rect width="342" height="1" x="436" y="724.5" rx="0.5" transform="rotate(0, 607, 725)"></rect><rect width="108" height="1" x="719" y="472.5" rx="0.5" transform="rotate(0, 773, 473)"></rect><rect width="33" height="1" x="343.5" y="770.5" rx="0.5" transform="rotate(0, 360, 771)"></rect><rect width="700" height="1" x="-88" y="485.5" rx="0.5" transform="rotate(0, 262, 486)"></rect><rect width="345" height="1" x="212.5" y="680.5" rx="0.5" transform="rotate(0, 385, 681)"></rect><rect width="523" height="1" x="-121.5" y="353.5" rx="0.5" transform="rotate(0, 140, 354)"></rect><rect width="654" height="1" x="-247" y="271.5" rx="0.5" transform="rotate(0, 80, 272)"></rect><rect width="307" height="1" x="32.5" y="770.5" rx="0.5" transform="rotate(0, 186, 771)"></rect><rect width="78" height="1" x="522" y="778.5" rx="0.5" transform="rotate(0, 561, 779)"></rect><rect width="186" height="1" x="320" y="32.5" rx="0.5" transform="rotate(0, 413, 33)"></rect><rect width="47" height="1" x="260.5" y="593.5" rx="0.5" transform="rotate(0, 284, 594)"></rect><rect width="473" height="1" x="134.5" y="86.5" rx="0.5" transform="rotate(0, 371, 87)"></rect><rect width="73" height="1" x="236.5" y="32.5" rx="0.5" transform="rotate(0, 273, 33)"></rect><rect width="491" height="1" x="189.5" y="121.5" rx="0.5" transform="rotate(0, 435, 122)"></rect><rect width="275" height="1" x="630.5" y="145.5" rx="0.5" transform="rotate(0, 768, 146)"></rect><rect width="181" height="1" x="487.5" y="140.5" rx="0.5" transform="rotate(0, 578, 141)"></rect><rect width="489" height="1" x="99.5" y="422.5" rx="0.5" transform="rotate(0, 344, 423)"></rect><rect width="291" height="1" x="545.5" y="316.5" rx="0.5" transform="rotate(0, 691, 317)"></rect><rect width="432" height="1" x="435" y="685.5" rx="0.5" transform="rotate(0, 651, 686)"></rect><rect width="601" height="1" x="411.5" y="678.5" rx="0.5" transform="rotate(0, 712, 679)"></rect><rect width="696" height="1" x="176" y="463.5" rx="0.5" transform="rotate(0, 524, 464)"></rect><rect width="255" height="1" x="501.5" y="165.5" rx="0.5" transform="rotate(0, 629, 166)"></rect><rect width="204" height="1" x="582" y="609.5" rx="0.5" transform="rotate(0, 684, 610)"></rect><rect width="163" height="1" x="526.5" y="777.5" rx="0.5" transform="rotate(0, 608, 778)"></rect><rect width="567" height="1" x="47.5" y="651.5" rx="0.5" transform="rotate(0, 331, 652)"></rect><rect width="112" height="1" x="9" y="18.5" rx="0.5" transform="rotate(0, 65, 19)"></rect><rect width="637" height="1" x="447.5" y="251.5" rx="0.5" transform="rotate(0, 766, 252)"></rect><rect width="369" height="1" x="555.5" y="773.5" rx="0.5" transform="rotate(0, 740, 774)"></rect><rect width="343" height="1" x="246.5" y="778.5" rx="0.5" transform="rotate(0, 418, 779)"></rect><rect width="174" height="1" x="81" y="612.5" rx="0.5" transform="rotate(0, 168, 613)"></rect><rect width="423" height="1" x="-5.5" y="686.5" rx="0.5" transform="rotate(0, 206, 687)"></rect><rect width="314" height="1" x="618" y="415.5" rx="0.5" transform="rotate(0, 775, 416)"></rect><rect width="418" height="1" x="-125" y="410.5" rx="0.5" transform="rotate(0, 84, 411)"></rect><rect width="171" height="1" x="246.5" y="26.5" rx="0.5" transform="rotate(0, 332, 27)"></rect><rect width="763" height="1" x="4.5" y="488.5" rx="0.5" transform="rotate(0, 386, 489)"></rect><rect width="52" height="1" x="196" y="442.5" rx="0.5" transform="rotate(0, 222, 443)"></rect><rect width="689" height="1" x="53.5" y="585.5" rx="0.5" transform="rotate(0, 398, 586)"></rect><rect width="270" height="1" x="158" y="780.5" rx="0.5" transform="rotate(0, 293, 781)"></rect><rect width="266" height="1" x="103" y="294.5" rx="0.5" transform="rotate(0, 236, 295)"></rect><rect width="550" height="1" x="-40" y="631.5" rx="0.5" transform="rotate(0, 235, 632)"></rect><rect width="511" height="1" x="-48.5" y="222.5" rx="0.5" transform="rotate(0, 207, 223)"></rect><rect width="330" height="1" x="359" y="708.5" rx="0.5" transform="rotate(0, 524, 709)"></rect><rect width="358" height="1" x="-150" y="441.5" rx="0.5" transform="rotate(0, 29, 442)"></rect><rect width="82" height="1" x="669" y="122.5" rx="0.5" transform="rotate(0, 710, 123)"></rect><rect width="414" height="1" x="-187" y="618.5" rx="0.5" transform="rotate(0, 20, 619)"></rect><rect width="343" height="1" x="-138.5" y="527.5" rx="0.5" transform="rotate(0, 33, 528)"></rect><rect width="168" height="1" x="674" y="561.5" rx="0.5" transform="rotate(0, 758, 562)"></rect><rect width="302" height="1" x="627" y="333.5" rx="0.5" transform="rotate(0, 778, 334)"></rect><rect width="259" height="1" x="344.5" y="709.5" rx="0.5" transform="rotate(0, 474, 710)"></rect><rect width="253" height="1" x="170.5" y="734.5" rx="0.5" transform="rotate(0, 297, 735)"></rect><rect width="310" height="1" x="117" y="117.5" rx="0.5" transform="rotate(0, 272, 118)"></rect><rect width="116" height="1" x="67" y="39.5" rx="0.5" transform="rotate(0, 125, 40)"></rect><rect width="318" height="1" x="-92" y="200.5" rx="0.5" transform="rotate(0, 67, 201)"></rect><rect width="361" height="1" x="-81.5" y="124.5" rx="0.5" transform="rotate(0, 99, 125)"></rect><rect width="234" height="1" x="592" y="394.5" rx="0.5" transform="rotate(0, 709, 395)"></rect><rect width="670" height="1" x="-63" y="221.5" rx="0.5" transform="rotate(0, 272, 222)"></rect><rect width="110" height="1" x="419" y="779.5" rx="0.5" transform="rotate(0, 474, 780)"></rect><rect width="338" height="1" x="-14" y="98.5" rx="0.5" transform="rotate(0, 155, 99)"></rect><rect width="200" height="1" x="420" y="769.5" rx="0.5" transform="rotate(0, 520, 770)"></rect><rect width="100" height="1" x="529" y="508.5" rx="0.5" transform="rotate(0, 579, 509)"></rect><rect width="298" height="1" x="73" y="170.5" rx="0.5" transform="rotate(0, 222, 171)"></rect><rect width="319" height="1" x="360.5" y="655.5" rx="0.5" transform="rotate(0, 520, 656)"></rect><rect width="143" height="1" x="628.5" y="753.5" rx="0.5" transform="rotate(0, 700, 754)"></rect><rect width="324" height="1" x="-125" y="772.5" rx="0.5" transform="rotate(0, 37, 773)"></rect><rect width="483" height="1" x="525.5" y="718.5" rx="0.5" transform="rotate(0, 767, 719)"></rect><rect width="238" height="1" x="-103" y="24.5" rx="0.5" transform="rotate(0, 16, 25)"></rect><rect width="50" height="1" x="69" y="622.5" rx="0.5" transform="rotate(0, 94, 623)"></rect><rect width="334" height="1" x="259" y="667.5" rx="0.5" transform="rotate(0, 426, 668)"></rect><rect width="272" height="1" x="635" y="661.5" rx="0.5" transform="rotate(0, 771, 662)"></rect><rect width="30" height="1" x="523" y="557.5" rx="0.5" transform="rotate(0, 538, 558)"></rect><rect width="177" height="1" x="629.5" y="447.5" rx="0.5" transform="rotate(0, 718, 448)"></rect><rect width="214" height="1" x="60" y="15.5" rx="0.5" transform="rotate(0, 167, 16)"></rect><rect width="123" height="1" x="719.5" y="771.5" rx="0.5" transform="rotate(0, 781, 772)"></rect><rect width="148" height="1" x="686" y="608.5" rx="0.5" transform="rotate(0, 760, 609)"></rect><rect width="484" height="1" x="464" y="186.5" rx="0.5" transform="rotate(0, 706, 187)"></rect><rect width="461" height="1" x="85.5" y="351.5" rx="0.5" transform="rotate(0, 316, 352)"></rect><rect width="35" height="1" x="118.5" y="552.5" rx="0.5" transform="rotate(0, 136, 553)"></rect><rect width="264" height="1" x="-50" y="68.5" rx="0.5" transform="rotate(0, 82, 69)"></rect><rect width="275" height="1" x="25.5" y="284.5" rx="0.5" transform="rotate(0, 163, 285)"></rect><rect width="293" height="1" x="378.5" y="100.5" rx="0.5" transform="rotate(0, 525, 101)"></rect><rect width="237" height="1" x="455.5" y="676.5" rx="0.5" transform="rotate(0, 574, 677)"></rect><rect width="474" height="1" x="517" y="42.5" rx="0.5" transform="rotate(0, 754, 43)"></rect><rect width="111" height="1" x="102.5" y="148.5" rx="0.5" transform="rotate(0, 158, 149)"></rect><rect width="48" height="1" x="131" y="676.5" rx="0.5" transform="rotate(0, 155, 677)"></rect><rect width="36" height="1" x="138" y="213.5" rx="0.5" transform="rotate(0, 156, 214)"></rect><rect width="629" height="1" x="-71.5" y="376.5" rx="0.5" transform="rotate(0, 243, 377)"></rect><rect width="339" height="1" x="240.5" y="323.5" rx="0.5" transform="rotate(0, 410, 324)"></rect><rect width="435" height="1" x="-103.5" y="191.5" rx="0.5" transform="rotate(0, 114, 192)"></rect><rect width="561" height="1" x="318.5" y="30.5" rx="0.5" transform="rotate(0, 599, 31)"></rect><rect width="238" height="1" x="-16" y="498.5" rx="0.5" transform="rotate(0, 103, 499)"></rect><rect width="469" height="1" x="-113.5" y="774.5" rx="0.5" transform="rotate(0, 121, 775)"></rect><rect width="590" height="1" x="379" y="49.5" rx="0.5" transform="rotate(0, 674, 50)"></rect><rect width="389" height="1" x="69.5" y="691.5" rx="0.5" transform="rotate(0, 264, 692)"></rect><rect width="37" height="1" x="698.5" y="523.5" rx="0.5" transform="rotate(0, 717, 524)"></rect><rect width="430" height="1" x="100" y="94.5" rx="0.5" transform="rotate(0, 315, 95)"></rect><rect width="126" height="1" x="-33" y="63.5" rx="0.5" transform="rotate(0, 30, 64)"></rect><rect width="297" height="1" x="483.5" y="339.5" rx="0.5" transform="rotate(0, 632, 340)"></rect><rect width="620" height="1" x="189" y="36.5" rx="0.5" transform="rotate(0, 499, 37)"></rect><rect width="529" height="1" x="196.5" y="509.5" rx="0.5" transform="rotate(0, 461, 510)"></rect><rect width="248" height="1" x="650" y="517.5" rx="0.5" transform="rotate(0, 774, 518)"></rect><rect width="195" height="1" x="504.5" y="629.5" rx="0.5" transform="rotate(0, 602, 630)"></rect><rect width="155" height="1" x="383.5" y="609.5" rx="0.5" transform="rotate(0, 461, 610)"></rect><rect width="182" height="1" x="92" y="60.5" rx="0.5" transform="rotate(0, 183, 61)"></rect><rect width="607" height="1" x="-97.5" y="543.5" rx="0.5" transform="rotate(0, 206, 544)"></rect><rect width="251" height="1" x="551.5" y="480.5" rx="0.5" transform="rotate(0, 677, 481)"></rect><rect width="393" height="1" x="121.5" y="286.5" rx="0.5" transform="rotate(0, 318, 287)"></rect><rect width="120" height="1" x="264" y="538.5" rx="0.5" transform="rotate(0, 324, 539)"></rect><rect width="126" height="1" x="583" y="217.5" rx="0.5" transform="rotate(0, 646, 218)"></rect><rect width="133" height="1" x="18.5" y="688.5" rx="0.5" transform="rotate(0, 85, 689)"></rect><rect width="268" height="1" x="-84" y="656.5" rx="0.5" transform="rotate(0, 50, 657)"></rect><rect width="389" height="1" x="262.5" y="403.5" rx="0.5" transform="rotate(0, 457, 404)"></rect><rect width="394" height="1" x="-51" y="460.5" rx="0.5" transform="rotate(0, 146, 461)"></rect><rect width="173" height="1" x="274.5" y="238.5" rx="0.5" transform="rotate(0, 361, 239)"></rect><rect width="444" height="1" x="14" y="83.5" rx="0.5" transform="rotate(0, 236, 84)"></rect><rect width="613" height="1" x="241.5" y="332.5" rx="0.5" transform="rotate(0, 548, 333)"></rect><rect width="413" height="1" x="286.5" y="286.5" rx="0.5" transform="rotate(0, 493, 287)"></rect><rect width="410" height="1" x="-30" y="416.5" rx="0.5" transform="rotate(0, 175, 417)"></rect><rect width="62" height="1" x="622" y="762.5" rx="0.5" transform="rotate(0, 653, 763)"></rect><rect width="690" height="1" x="224" y="401.5" rx="0.5" transform="rotate(0, 569, 402)"></rect><rect width="347" height="1" x="456.5" y="441.5" rx="0.5" transform="rotate(0, 630, 442)"></rect><rect width="332" height="1" x="71" y="759.5" rx="0.5" transform="rotate(0, 237, 760)"></rect><rect width="133" height="1" x="7.5" y="577.5" rx="0.5" transform="rotate(0, 74, 578)"></rect><rect width="103" height="1" x="508.5" y="733.5" rx="0.5" transform="rotate(0, 560, 734)"></rect></g></svg>